# Blender 4.4.3
# www.blender.org
mtllib cube.mtl
o Cube
v 1.000000 1.000000 -1.000000
v 1.000000 -1.000000 -1.000000
v 1.000000 1.000000 1.000000
v 1.000000 -1.000000 1.000000
v -1.000000 1.000000 -1.000000
v -1.000000 -1.000000 -1.000000
v -1.000000 1.000000 1.000000
v -1.000000 -1.000000 1.000000
vn -0.0000 1.0000 -0.0000
vn -0.0000 -0.0000 1.0000
vn -1.0000 -0.0000 -0.0000
vn -0.0000 -1.0000 -0.0000
vn 1.0000 -0.0000 -0.0000
vn -0.0000 -0.0000 -1.0000
vt 0.001748 0.001945
vt 0.999826 0.001945
vt 0.999826 1.000023
vt 0.001748 1.000023
vt -0.003310 -0.000380
vt 1.000380 -0.000380
vt 1.000380 1.003310
vt -0.003310 1.003310
vt -0.008991 -0.008991
vt 0.999958 -0.008991
vt 0.999958 0.999958
vt -0.008991 0.999958
vt 0.001490 -0.002081
vt 1.003270 -0.002081
vt 1.003270 0.999698
vt 0.001490 0.999698
vt 0.001358 -0.002786
vt 1.002281 -0.002786
vt 1.002281 0.998137
vt 0.001358 0.998137
vt -0.000185 -0.001162
vt 1.000185 -0.001162
vt 1.000185 0.999208
vt -0.000185 0.999208
s 0
usemtl Material
f 1/1/1 5/2/1 7/3/1 3/4/1
f 4/5/2 3/6/2 7/7/2 8/8/2
f 8/9/3 7/10/3 5/11/3 6/12/3
f 6/13/4 2/14/4 4/15/4 8/16/4
f 2/17/5 1/18/5 3/19/5 4/20/5
f 6/21/6 5/22/6 1/23/6 2/24/6
